<svg width="49" height="32" viewBox="0 0 49 32" fill="none" xmlns="http://www.w3.org/2000/svg">
<path fill-rule="evenodd" clip-rule="evenodd" d="M41.8004 20.2931C42.0196 20.2718 42.2413 20.2576 42.4679 20.2576L42.4655 20.2623C44.0659 20.2623 45.6008 20.8806 46.7325 21.9812C47.8642 23.0819 48.5 24.5746 48.5 26.1312C48.5 27.6877 47.8642 29.1804 46.7325 30.2811C45.6008 31.3817 44.0659 32 42.4655 32H9.82001C7.36296 31.9544 5.01965 30.9847 3.28213 29.2945C1.5446 27.6043 0.54804 25.3251 0.501692 22.9355C0.455344 20.5459 1.36282 18.2318 3.03356 16.4791C4.70431 14.7264 7.00835 13.6714 9.46188 13.5357C9.10526 12.0312 9.07673 10.4706 9.37813 8.95466C9.67952 7.43871 10.3042 6.00099 11.2118 4.73415C12.1194 3.46731 13.2899 2.39947 14.6478 1.59944C16.0056 0.799406 17.5208 0.284937 19.0956 0.0891865C20.6704 -0.106564 22.2699 0.0207478 23.7911 0.462915C25.3122 0.905083 26.7212 1.6523 27.9273 2.6564C29.1333 3.66051 30.1097 4.89922 30.7934 6.29272C31.4772 7.68622 31.8532 9.20359 31.8971 10.747H32.2991C34.819 10.747 37.2357 11.7206 39.0175 13.4535C40.7993 15.1864 41.8004 17.5367 41.8004 19.9875V20.2931ZM28.5658 18.2235C29.3584 17.2586 29.1689 15.8723 28.1426 15.1271C27.1163 14.3819 25.6418 14.5601 24.8492 15.525L19.4947 22.0436L17.7847 19.6988C17.0514 18.6933 15.5899 18.437 14.5204 19.1264C13.4509 19.8159 13.1784 21.1899 13.9117 22.1954L17.4454 27.0408C17.8699 27.623 18.565 27.9791 19.3154 27.9991C20.0659 28.0191 20.7813 27.7004 21.2402 27.1418L28.5658 18.2235Z" fill="#A15BB6"/>
</svg>
